<svg width="44" height="44" viewBox="0 0 44 44" fill="none" xmlns="http://www.w3.org/2000/svg">
<path d="M4.58334 14.6667H39.4167C39.6598 14.6667 39.8929 14.7632 40.0649 14.9352C40.2368 15.1071 40.3333 15.3402 40.3333 15.5833V35.75C40.3333 35.9931 40.2368 36.2263 40.0649 36.3982C39.8929 36.5701 39.6598 36.6667 39.4167 36.6667H27.5L22.0073 31.1676L16.5 36.6667H4.58334C4.34022 36.6667 4.10707 36.5701 3.93516 36.3982C3.76325 36.2263 3.66667 35.9931 3.66667 35.75V15.5833C3.66667 15.3402 3.76325 15.1071 3.93516 14.9352C4.10707 14.7632 4.34022 14.6667 4.58334 14.6667Z" stroke="black" stroke-width="4" stroke-linejoin="round"/>
<path d="M12.8333 29.3333C13.8058 29.3333 14.7384 28.947 15.4261 28.2594C16.1137 27.5718 16.5 26.6391 16.5 25.6667C16.5 24.6942 16.1137 23.7616 15.4261 23.0739C14.7384 22.3863 13.8058 22 12.8333 22C11.8609 22 10.9282 22.3863 10.2406 23.0739C9.55298 23.7616 9.16667 24.6942 9.16667 25.6667C9.16667 26.6391 9.55298 27.5718 10.2406 28.2594C10.9282 28.947 11.8609 29.3333 12.8333 29.3333V29.3333ZM31.1667 29.3333C32.1391 29.3333 33.0718 28.947 33.7594 28.2594C34.447 27.5718 34.8333 26.6391 34.8333 25.6667C34.8333 24.6942 34.447 23.7616 33.7594 23.0739C33.0718 22.3863 32.1391 22 31.1667 22C30.1942 22 29.2616 22.3863 28.5739 23.0739C27.8863 23.7616 27.5 24.6942 27.5 25.6667C27.5 26.6391 27.8863 27.5718 28.5739 28.2594C29.2616 28.947 30.1942 29.3333 31.1667 29.3333V29.3333Z" stroke="black" stroke-width="4" stroke-linecap="round" stroke-linejoin="round"/>
<path d="M5.5 9.16667H38.5" stroke="black" stroke-width="4" stroke-linecap="round" stroke-linejoin="round"/>
</svg>
